<svg width="114" height="24" viewBox="0 0 114 24" fill="none" xmlns="http://www.w3.org/2000/svg">
<path d="M9.032 19.192C7.352 19.192 5.832 18.824 4.472 18.088C3.128 17.336 2.072 16.312 1.304 15.016C0.536 13.704 0.152 12.232 0.152 10.6C0.152 8.968 0.536 7.504 1.304 6.208C2.072 4.896 3.136 3.872 4.496 3.136C5.856 2.384 7.376 2.008 9.056 2.008C10.368 2.008 11.568 2.232 12.656 2.68C13.744 3.112 14.672 3.76 15.44 4.624L13.88 6.136C12.616 4.808 11.04 4.144 9.152 4.144C7.904 4.144 6.776 4.424 5.768 4.984C4.76 5.544 3.968 6.32 3.392 7.312C2.832 8.288 2.552 9.384 2.552 10.6C2.552 11.816 2.832 12.92 3.392 13.912C3.968 14.888 4.76 15.656 5.768 16.216C6.776 16.776 7.904 17.056 9.152 17.056C11.024 17.056 12.6 16.384 13.88 15.04L15.44 16.552C14.672 17.416 13.736 18.072 12.632 18.52C11.544 18.968 10.344 19.192 9.032 19.192ZM22.9957 6.16C24.7557 6.16 26.0997 6.592 27.0277 7.456C27.9717 8.32 28.4437 9.608 28.4437 11.32V19H26.2597V17.32C25.8757 17.912 25.3237 18.368 24.6037 18.688C23.8997 18.992 23.0597 19.144 22.0837 19.144C20.6597 19.144 19.5157 18.8 18.6517 18.112C17.8037 17.424 17.3797 16.52 17.3797 15.4C17.3797 14.28 17.7877 13.384 18.6037 12.712C19.4197 12.024 20.7157 11.68 22.4917 11.68H26.1397V11.224C26.1397 10.232 25.8517 9.472 25.2757 8.944C24.6997 8.416 23.8517 8.152 22.7317 8.152C21.9797 8.152 21.2437 8.28 20.5237 8.536C19.8037 8.776 19.1957 9.104 18.6997 9.52L17.7397 7.792C18.3957 7.264 19.1797 6.864 20.0917 6.592C21.0037 6.304 21.9717 6.16 22.9957 6.16ZM22.4677 17.368C23.3477 17.368 24.1077 17.176 24.7477 16.792C25.3877 16.392 25.8517 15.832 26.1397 15.112V13.336H22.5877C20.6357 13.336 19.6597 13.992 19.6597 15.304C19.6597 15.944 19.9077 16.448 20.4037 16.816C20.8997 17.184 21.5877 17.368 22.4677 17.368ZM34.9154 8.416C35.3154 7.68 35.9074 7.12 36.6914 6.736C37.4754 6.352 38.4274 6.16 39.5474 6.16V8.392C39.4194 8.376 39.2434 8.368 39.0194 8.368C37.7714 8.368 36.7874 8.744 36.0674 9.496C35.3634 10.232 35.0114 11.288 35.0114 12.664V19H32.7074V6.28H34.9154V8.416ZM54.2699 1.192V19H52.0619V16.984C51.5499 17.688 50.9019 18.224 50.1179 18.592C49.3339 18.96 48.4699 19.144 47.5259 19.144C46.2939 19.144 45.1899 18.872 44.2139 18.328C43.2379 17.784 42.4699 17.024 41.9099 16.048C41.3659 15.056 41.0939 13.92 41.0939 12.64C41.0939 11.36 41.3659 10.232 41.9099 9.256C42.4699 8.28 43.2379 7.52 44.2139 6.976C45.1899 6.432 46.2939 6.16 47.5259 6.16C48.4379 6.16 49.2779 6.336 50.0459 6.688C50.8139 7.024 51.4539 7.528 51.9659 8.2V1.192H54.2699ZM47.7179 17.128C48.5179 17.128 49.2459 16.944 49.9019 16.576C50.5579 16.192 51.0699 15.664 51.4379 14.992C51.8059 14.304 51.9899 13.52 51.9899 12.64C51.9899 11.76 51.8059 10.984 51.4379 10.312C51.0699 9.624 50.5579 9.096 49.9019 8.728C49.2459 8.36 48.5179 8.176 47.7179 8.176C46.9019 8.176 46.1659 8.36 45.5099 8.728C44.8699 9.096 44.3579 9.624 43.9739 10.312C43.6059 10.984 43.4219 11.76 43.4219 12.64C43.4219 13.52 43.6059 14.304 43.9739 14.992C44.3579 15.664 44.8699 16.192 45.5099 16.576C46.1659 16.944 46.9019 17.128 47.7179 17.128ZM63.2613 6.16C65.0213 6.16 66.3653 6.592 67.2933 7.456C68.2373 8.32 68.7093 9.608 68.7093 11.32V19H66.5253V17.32C66.1413 17.912 65.5893 18.368 64.8693 18.688C64.1653 18.992 63.3253 19.144 62.3493 19.144C60.9253 19.144 59.7813 18.8 58.9173 18.112C58.0693 17.424 57.6453 16.52 57.6453 15.4C57.6453 14.28 58.0533 13.384 58.8693 12.712C59.6853 12.024 60.9813 11.68 62.7573 11.68H66.4053V11.224C66.4053 10.232 66.1173 9.472 65.5413 8.944C64.9653 8.416 64.1173 8.152 62.9973 8.152C62.2453 8.152 61.5093 8.28 60.7893 8.536C60.0693 8.776 59.4613 9.104 58.9653 9.52L58.0053 7.792C58.6613 7.264 59.4453 6.864 60.3573 6.592C61.2693 6.304 62.2373 6.16 63.2613 6.16ZM62.7333 17.368C63.6133 17.368 64.3733 17.176 65.0133 16.792C65.6533 16.392 66.1173 15.832 66.4053 15.112V13.336H62.8533C60.9013 13.336 59.9253 13.992 59.9253 15.304C59.9253 15.944 60.1733 16.448 60.6693 16.816C61.1653 17.184 61.8533 17.368 62.7333 17.368ZM79.7171 6.16C80.9491 6.16 82.0531 6.432 83.0291 6.976C84.0051 7.52 84.7651 8.28 85.3091 9.256C85.8691 10.232 86.1491 11.36 86.1491 12.64C86.1491 13.92 85.8691 15.056 85.3091 16.048C84.7651 17.024 84.0051 17.784 83.0291 18.328C82.0531 18.872 80.9491 19.144 79.7171 19.144C78.8051 19.144 77.9651 18.968 77.1971 18.616C76.4451 18.264 75.8051 17.752 75.2771 17.08V23.656H72.9731V6.28H75.1811V8.296C75.6931 7.592 76.3411 7.064 77.1251 6.712C77.9091 6.344 78.7731 6.16 79.7171 6.16ZM79.5251 17.128C80.3411 17.128 81.0691 16.944 81.7091 16.576C82.3651 16.192 82.8771 15.664 83.2451 14.992C83.6291 14.304 83.8211 13.52 83.8211 12.64C83.8211 11.76 83.6291 10.984 83.2451 10.312C82.8771 9.624 82.3651 9.096 81.7091 8.728C81.0691 8.36 80.3411 8.176 79.5251 8.176C78.7251 8.176 77.9971 8.368 77.3411 8.752C76.7011 9.12 76.1891 9.64 75.8051 10.312C75.4371 10.984 75.2531 11.76 75.2531 12.64C75.2531 13.52 75.4371 14.304 75.8051 14.992C76.1731 15.664 76.6851 16.192 77.3411 16.576C77.9971 16.944 78.7251 17.128 79.5251 17.128Z" fill="url(#paint0_linear_2_43)"/>
<path d="M89.8844 19.144C89.4364 19.144 89.0524 18.992 88.7324 18.688C88.4124 18.368 88.2524 17.968 88.2524 17.488C88.2524 17.024 88.4124 16.64 88.7324 16.336C89.0524 16.016 89.4364 15.856 89.8844 15.856C90.3324 15.856 90.7084 16.008 91.0124 16.312C91.3164 16.616 91.4684 17.008 91.4684 17.488C91.4684 17.968 91.3084 18.368 90.9884 18.688C90.6844 18.992 90.3164 19.144 89.8844 19.144Z" fill="black"/>
<path d="M94.7699 6.28H97.0739V19H94.7699V6.28ZM95.9219 3.832C95.4739 3.832 95.0979 3.688 94.7939 3.4C94.5059 3.112 94.3619 2.76 94.3619 2.344C94.3619 1.928 94.5059 1.576 94.7939 1.288C95.0979 0.983999 95.4739 0.831999 95.9219 0.831999C96.3699 0.831999 96.7379 0.975999 97.0259 1.264C97.3299 1.536 97.4819 1.88 97.4819 2.296C97.4819 2.728 97.3299 3.096 97.0259 3.4C96.7379 3.688 96.3699 3.832 95.9219 3.832ZM106.921 19.144C105.657 19.144 104.521 18.864 103.513 18.304C102.505 17.744 101.713 16.976 101.137 16C100.577 15.008 100.297 13.888 100.297 12.64C100.297 11.392 100.577 10.28 101.137 9.304C101.713 8.312 102.505 7.544 103.513 7C104.521 6.44 105.657 6.16 106.921 6.16C108.185 6.16 109.313 6.44 110.305 7C111.313 7.544 112.097 8.312 112.657 9.304C113.233 10.28 113.521 11.392 113.521 12.64C113.521 13.888 113.233 15.008 112.657 16C112.097 16.976 111.313 17.744 110.305 18.304C109.313 18.864 108.185 19.144 106.921 19.144ZM106.921 17.128C107.737 17.128 108.465 16.944 109.105 16.576C109.761 16.192 110.273 15.664 110.641 14.992C111.009 14.304 111.193 13.52 111.193 12.64C111.193 11.76 111.009 10.984 110.641 10.312C110.273 9.624 109.761 9.096 109.105 8.728C108.465 8.36 107.737 8.176 106.921 8.176C106.105 8.176 105.369 8.36 104.713 8.728C104.073 9.096 103.561 9.624 103.177 10.312C102.809 10.984 102.625 11.76 102.625 12.64C102.625 13.52 102.809 14.304 103.177 14.992C103.561 15.664 104.073 16.192 104.713 16.576C105.369 16.944 106.105 17.128 106.921 17.128Z" fill="#FFA700"/>
<defs>
<linearGradient id="paint0_linear_2_43" x1="1.5" y1="10" x2="87" y2="14" gradientUnits="userSpaceOnUse">
<stop stop-color="#880000"/>
<stop offset="1" stop-color="#D10025"/>
</linearGradient>
</defs>
</svg>
